#!OML:ASF I:\salsa\salsa 7_09\Patient 1\Session 1\dancerfemale.ASF
:FULLY-SPECIFIED
:DEGREES
1469
root 10.7425 15.7573 -3.41756 -1326.87 266.067 241.594
lowerback 1.44546 -1.3307 -4.39622
upperback -6.59159 -2.36463 -2.33049
thorax -7.64709 -1.05424 0.210231
lowerneck -5.27844 1.2711 -4.41751
upperneck 19.549 0.509854 7.34547
head 6.75164 0.347249 3.13244
rclavicle -1.11319e-014 -2.18663e-014
rhumerus -34.5409 9.0808 -107.44
rradius 76.0897
rwrist -6.43349
rhand -0.692855 788.336
rfingers 7.12502
rthumb 24.9266 39.9417
lclavicle -1.11319e-014 -2.18663e-014
lhumerus -56.0615 -9.82709 93.5335
lradius 59.5681
lwrist -0.921527
lhand 11.1868 63.2853
lfingers 7.12502
lthumb 36.2511 89.5398
rfemur -1.64865 -8.16442 17.8991
rtibia 44.5559
rfoot -17.7741 1.02722
rtoes -28.3904
lfemur -26.2892 4.26602 -28.258
ltibia 35.4076
lfoot 2.27135 1.56649
ltoes -11.829
1470
root 10.8578 15.7507 -3.43156 -1324.4 266.353 238.986
lowerback 1.7088 -0.709975 -4.14485
upperback -6.37849 -1.51184 -2.35208
thorax -7.60224 -0.646821 -0.0153052
lowerneck -5.05611 0.86894 -4.86182
upperneck 19.2593 -0.0369303 7.66775
head 6.65131 0.0759268 3.26801
rclavicle 7.95139e-015 1.03368e-014
rhumerus -34.3455 8.31795 -106.97
rradius 77.2609
rwrist -6.46002
rhand -0.661882 788.164
rfingers 7.12502
rthumb 24.9563 39.774
lclavicle 7.95139e-015 1.03368e-014
lhumerus -54.6401 -9.09174 93.5152
lradius 59.5374
lwrist -3.25615
lhand 10.4506 62.1006
lfingers 7.12502
lthumb 35.5536 88.5256
rfemur -0.755952 -9.09813 18.2919
rtibia 42.8068
rfoot -18.9103 0.822756
rtoes -26.639
lfemur -26.7949 4.66535 -27.902
ltibia 35.4959
lfoot 3.53544 1.13209
ltoes -11.8066
1471
root 10.9841 15.7508 -3.44939 -1322.51 266.326 236.973
lowerback 1.99681 -0.0115573 -4.2009
upperback -6.1542 -0.582687 -2.46698
thorax -7.55602 -0.1879 -0.178803
lowerneck -4.93253 0.367081 -5.29983
upperneck 19.0616 -0.716803 7.94491
head 6.61267 -0.261239 3.38226
rclavicle -4.57205e-015 3.97569e-015
rhumerus -34.304 7.37123 -106.336
rradius 78.4695
rwrist -6.17206
rhand -0.584461 787.961
rfingers 7.12502
rthumb 25.0304 39.5811
lclavicle -4.57205e-015 3.97569e-015
lhumerus -53.5055 -8.23094 93.5193
lradius 59.9307
lwrist -5.334
lhand 10.8491 62.1393
lfingers 7.12502
lthumb 35.9312 88.4727
rfemur 0.316231 -9.88962 18.4411
rtibia 40.6371
rfoot -19.8554 0.613129
rtoes -25.2899
lfemur -27.2848 4.41358 -27.7857
ltibia 35.478
lfoot 5.13215 1.25998
ltoes -11.4952
1472
root 11.1246 15.764 -3.46785 -1319.54 266.152 233.9
lowerback 2.32295 0.698951 -4.30575
upperback -5.90397 0.357141 -2.59557
thorax -7.50349 0.278136 -0.336209
lowerneck -4.86451 -0.191587 -5.84142
upperneck 18.9123 -1.45987 8.20389
head 6.61017 -0.636006 3.50531
rclavicle -1.59028e-015 -1.35174e-014
rhumerus -34.3384 6.6135 -105.582
rradius 79.5504
rwrist -5.85881
rhand -0.779744 787.787
rfingers 7.12502
rthumb 24.8433 39.3811
lclavicle -1.59028e-015 -1.35174e-014
lhumerus -52.7567 -7.29137 93.5682
lradius 60.9415
lwrist -6.99831
lhand 13.0897 63.7293
lfingers 7.12502
lthumb 38.0505 89.5147
rfemur 1.50437 -10.4593 18.5968
rtibia 38.0188
rfoot -20.7533 0.0877843
rtoes -23.6418
lfemur -27.7879 3.53209 -27.6781
ltibia 35.3777
lfoot 6.86877 1.82466
ltoes -11.8188
1473
root 11.28 15.7924 -3.485 -1310.92 266.248 225.28
lowerback 2.53956 1.39342 -3.86471
upperback -5.62347 1.33174 -2.59392
thorax -7.33874 0.7355 -0.666464
lowerneck -4.73982 -0.833795 -6.52547
upperneck 18.7019 -2.30032 8.46452
head 6.59433 -1.06798 3.64505
rclavicle 2.88238e-014 -2.94201e-014
rhumerus -34.2326 6.10963 -104.674
rradius 80.2889
rwrist -5.7085
rhand -0.931056 787.641
rfingers 7.12502
rthumb 24.6983 39.215
lclavicle 2.88238e-014 -2.94201e-014
lhumerus -52.4098 -6.65935 93.9441
lradius 62.4129
lwrist -6.97325
lhand 12.5181 63.5594
lfingers 7.12502
lthumb 37.5105 89.4902
rfemur 2.63343 -10.5322 19.4773
rtibia 34.9737
rfoot -21.2706 -0.978474
rtoes -21.7514
lfemur -28.4824 2.04657 -26.9578
ltibia 35.3145
lfoot 8.74785 2.88955
ltoes -12.7204
1474
root 11.4466 15.829 -3.50175 -1292.77 266.494 207.19
lowerback 2.72107 2.03283 -2.73574
upperback -5.37004 2.29224 -2.43397
thorax -7.14219 1.15772 -1.21354
lowerneck -4.60398 -1.51483 -7.15529
upperneck 18.4708 -3.18291 8.62934
head 6.5811 -1.52321 3.74022
rclavicle 1.66979e-014 -4.77083e-015
rhumerus -34.1892 5.4728 -103.679
rradius 80.9445
rwrist -5.49938
rhand -1.21414 787.332
rfingers 7.12502
rthumb 24.4269 38.8694
lclavicle 1.66979e-014 -4.77083e-015
lhumerus -52.392 -6.05967 94.2623
lradius 64.1107
lwrist -6.83141
lhand 11.7286 63.0694
lfingers 7.12502
lthumb 36.764 89.1945
rfemur 3.63539 -9.98654 21.2451
rtibia 31.7298
rfoot -21.3013 -2.36315
rtoes -19.7921
lfemur -29.4692 0.461961 -25.5395
ltibia 35.4743
lfoot 10.858 4.21474
ltoes -13.155
1475
root 11.623 15.8576 -3.5178 -1268.43 266.248 182.912
lowerback 2.9555 2.5705 -1.24547
upperback -5.11471 3.14559 -2.18509
thorax -6.93167 1.51588 -1.86113
lowerneck -4.57878 -2.19726 -7.57275
upperneck 18.2331 -4.0564 8.6511
head 6.58649 -1.966 3.75085
rclavicle 5.40694e-014 -6.36111e-015
rhumerus -34.1548 4.80769 -102.635
rradius 81.5889
rwrist -5.31604
rhand -1.12315 787.045
rfingers 7.12502
rthumb 24.5142 38.5938
lclavicle 5.40694e-014 -6.36111e-015
lhumerus -52.5867 -5.49972 94.4491
lradius 65.8929
lwrist -6.71003
lhand 11.024 62.4665
lfingers 7.12502
lthumb 36.0969 88.7592
rfemur 4.53868 -8.68922 23.5864
rtibia 28.502
rfoot -21.1239 -4.20858
rtoes -17.5109
lfemur -30.7906 -0.399148 -23.9054
ltibia 35.9709
lfoot 13.1827 4.76769
ltoes -14.0434
1476
root 11.8092 15.8594 -3.53316 -1249.37 265.297 163.812
lowerback 3.30602 3.00665 0.315193
upperback -4.798 3.8715 -1.90168
thorax -6.69526 1.81446 -2.50417
lowerneck -4.53526 -2.85894 -7.97149
upperneck 17.7649 -4.91367 8.84211
head 6.52103 -2.38599 3.81098
rclavicle 6.38099e-014 -5.56597e-015
rhumerus -33.9596 4.25879 -101.547
rradius 82.1127
rwrist -5.10496
rhand -0.860323 786.736
rfingers 7.12502
rthumb 24.7661 38.3199
lclavicle 6.38099e-014 -5.56597e-015
lhumerus -52.7893 -5.11556 94.5312
lradius 67.5588
lwrist -6.57032
lhand 10.4708 61.8727
lfingers 7.12502
lthumb 35.5728 88.293
rfemur 5.35067 -8.38067 25.6161
rtibia 25.5127
rfoot -20.7436 -5.12669
rtoes -14.7364
lfemur -32.3714 -0.692913 -22.316
ltibia 36.8885
lfoot 15.2255 4.41194
ltoes -16.4436
1477
root 11.9996 15.8438 -3.54801 -1237.27 263.969 151.536
lowerback 3.79234 3.36539 1.88349
upperback -4.46647 4.50344 -1.5426
thorax -6.50673 2.07244 -3.073
lowerneck -4.20164 -3.43353 -8.67971
upperneck 16.9057 -5.69419 9.53771
head 6.29983 -2.76183 4.09454
rclavicle 2.40529e-014 -2.38542e-015
rhumerus -33.7072 3.79901 -100.379
rradius 82.5817
rwrist -4.86371
rhand -1.21443 786.178
rfingers 7.12502
rthumb 24.4267 37.715
lclavicle 2.40529e-014 -2.38542e-015
lhumerus -53.1246 -4.79702 94.572
lradius 68.9517
lwrist -5.81534
lhand 8.87494 59.4603
lfingers 7.12502
lthumb 34.0585 86.2311
rfemur 6.05103 -8.06281 27.6785
rtibia 22.9539
rfoot -20.5303 -6.21845
rtoes -11.6771
lfemur -33.9698 -1.15231 -20.6047
ltibia 38.2504
lfoot 16.4363 4.08663
ltoes -19.12
1478
root 12.1922 15.8085 -3.5623 -1229.15 262.435 143.183
lowerback 4.43062 3.64692 3.53598
upperback -4.21376 5.05141 -1.1598
thorax -6.47038 2.2826 -3.673
lowerneck -3.74757 -3.95453 -9.31767
upperneck 15.8954 -6.41245 10.2902
head 6.01641 -3.10724 4.3915
rclavicle 2.38542e-014 -4.77083e-015
rhumerus -33.354 3.33146 -99.1587
rradius 82.9597
rwrist -4.86318
rhand -1.28159 785.808
rfingers 7.12502
rthumb 24.3623 37.3362
lclavicle 2.38542e-014 -4.77083e-015
lhumerus -53.6561 -4.44702 94.2502
lradius 70.0669
lwrist -5.32466
lhand 8.98001 58.6018
lfingers 7.12502
lthumb 34.1583 85.3503
rfemur 6.37683 -7.64127 29.8748
rtibia 21.0538
rfoot -20.5166 -7.62102
rtoes -8.71896
lfemur -35.6692 -1.80082 -18.7278
ltibia 40.0692
lfoot 16.3511 3.81483
ltoes -21.0316
